<mxfile host="app.diagrams.net" agent="Mozilla/5.0 (Windows NT 10.0; Win64; x64) AppleWebKit/537.36 (KHTML, like Gecko) Chrome/135.0.0.0 Safari/537.36" version="26.2.9">
  <diagram name="Pagina-1" id="tgG29Tj0j_P8C9zzn67g">
    <mxGraphModel dx="1132" dy="608" grid="1" gridSize="10" guides="1" tooltips="1" connect="1" arrows="1" fold="1" page="1" pageScale="1" pageWidth="827" pageHeight="1169" math="0" shadow="0">
      <root>
        <mxCell id="0" />
        <mxCell id="1" parent="0" />
        <mxCell id="2saCW3hO8KF58HRFG3jg-102" style="edgeStyle=orthogonalEdgeStyle;rounded=0;orthogonalLoop=1;jettySize=auto;html=1;entryX=0.262;entryY=0.003;entryDx=0;entryDy=0;entryPerimeter=0;endArrow=none;startFill=0;" edge="1" parent="1" source="2saCW3hO8KF58HRFG3jg-15" target="2saCW3hO8KF58HRFG3jg-66">
          <mxGeometry relative="1" as="geometry">
            <mxPoint x="790" y="330" as="targetPoint" />
            <Array as="points">
              <mxPoint x="790" y="290" />
              <mxPoint x="790" y="334" />
            </Array>
          </mxGeometry>
        </mxCell>
        <mxCell id="2saCW3hO8KF58HRFG3jg-103" value="inserts&amp;nbsp;&lt;span style=&quot;color: rgb(32, 33, 34); font-family: sans-serif; font-size: 16px; text-align: start; text-wrap-mode: wrap; background-color: rgb(248, 249, 250);&quot;&gt;↘&lt;/span&gt;" style="edgeLabel;html=1;align=center;verticalAlign=middle;resizable=0;points=[];" vertex="1" connectable="0" parent="2saCW3hO8KF58HRFG3jg-102">
          <mxGeometry x="0.3912" y="1" relative="1" as="geometry">
            <mxPoint as="offset" />
          </mxGeometry>
        </mxCell>
        <mxCell id="2saCW3hO8KF58HRFG3jg-98" style="edgeStyle=orthogonalEdgeStyle;rounded=0;orthogonalLoop=1;jettySize=auto;html=1;entryX=0.5;entryY=0;entryDx=0;entryDy=0;endArrow=none;startFill=0;" edge="1" parent="1" source="2saCW3hO8KF58HRFG3jg-13" target="2saCW3hO8KF58HRFG3jg-66">
          <mxGeometry relative="1" as="geometry" />
        </mxCell>
        <mxCell id="2saCW3hO8KF58HRFG3jg-100" value="views&amp;nbsp;&lt;span style=&quot;color: rgb(32, 33, 34); font-family: sans-serif; font-size: 16px; text-align: start; text-wrap-mode: wrap; background-color: rgb(248, 249, 250);&quot;&gt;↓&lt;/span&gt;" style="edgeLabel;html=1;align=center;verticalAlign=middle;resizable=0;points=[];" vertex="1" connectable="0" parent="2saCW3hO8KF58HRFG3jg-98">
          <mxGeometry x="0.8169" y="-2" relative="1" as="geometry">
            <mxPoint as="offset" />
          </mxGeometry>
        </mxCell>
        <mxCell id="2saCW3hO8KF58HRFG3jg-99" style="edgeStyle=orthogonalEdgeStyle;rounded=0;orthogonalLoop=1;jettySize=auto;html=1;entryX=1;entryY=0.5;entryDx=0;entryDy=0;endArrow=none;startFill=0;" edge="1" parent="1" source="2saCW3hO8KF58HRFG3jg-13" target="2saCW3hO8KF58HRFG3jg-70">
          <mxGeometry relative="1" as="geometry">
            <Array as="points">
              <mxPoint x="940" y="210" />
              <mxPoint x="940" y="560" />
            </Array>
          </mxGeometry>
        </mxCell>
        <mxCell id="2saCW3hO8KF58HRFG3jg-101" value="views&amp;nbsp;&lt;span style=&quot;color: rgb(32, 33, 34); font-family: sans-serif; font-size: 16px; text-align: start; text-wrap-mode: wrap; background-color: rgb(248, 249, 250);&quot;&gt;↙&lt;/span&gt;" style="edgeLabel;html=1;align=center;verticalAlign=middle;resizable=0;points=[];" vertex="1" connectable="0" parent="2saCW3hO8KF58HRFG3jg-99">
          <mxGeometry x="0.8036" y="1" relative="1" as="geometry">
            <mxPoint as="offset" />
          </mxGeometry>
        </mxCell>
        <mxCell id="2saCW3hO8KF58HRFG3jg-5" value="&lt;font style=&quot;font-size: 15px;&quot;&gt;Classname&lt;/font&gt;" style="swimlane;fontStyle=1;align=center;verticalAlign=top;childLayout=stackLayout;horizontal=1;startSize=42;horizontalStack=0;resizeParent=1;resizeParentMax=0;resizeLast=0;collapsible=1;marginBottom=0;whiteSpace=wrap;html=1;" vertex="1" parent="1">
          <mxGeometry x="650" y="10" width="150" height="50" as="geometry" />
        </mxCell>
        <mxCell id="2saCW3hO8KF58HRFG3jg-7" value="" style="line;strokeWidth=1;fillColor=none;align=left;verticalAlign=middle;spacingTop=-1;spacingLeft=3;spacingRight=3;rotatable=0;labelPosition=right;points=[];portConstraint=eastwest;strokeColor=inherit;" vertex="1" parent="2saCW3hO8KF58HRFG3jg-5">
          <mxGeometry y="42" width="150" height="8" as="geometry" />
        </mxCell>
        <mxCell id="2saCW3hO8KF58HRFG3jg-21" style="edgeStyle=orthogonalEdgeStyle;rounded=0;orthogonalLoop=1;jettySize=auto;html=1;entryX=0.5;entryY=1;entryDx=0;entryDy=0;endArrow=block;endFill=0;endSize=8;" edge="1" parent="1" source="2saCW3hO8KF58HRFG3jg-13" target="2saCW3hO8KF58HRFG3jg-32">
          <mxGeometry relative="1" as="geometry">
            <mxPoint x="450" y="185" as="targetPoint" />
            <Array as="points">
              <mxPoint x="154" y="170" />
              <mxPoint x="154" y="170" />
            </Array>
          </mxGeometry>
        </mxCell>
        <mxCell id="2saCW3hO8KF58HRFG3jg-76" style="edgeStyle=orthogonalEdgeStyle;rounded=0;orthogonalLoop=1;jettySize=auto;html=1;entryX=0.5;entryY=0;entryDx=0;entryDy=0;endArrow=none;startFill=0;" edge="1" parent="1" source="2saCW3hO8KF58HRFG3jg-13" target="2saCW3hO8KF58HRFG3jg-46">
          <mxGeometry relative="1" as="geometry">
            <Array as="points">
              <mxPoint x="395" y="240" />
            </Array>
          </mxGeometry>
        </mxCell>
        <mxCell id="2saCW3hO8KF58HRFG3jg-78" value="views&amp;nbsp;&lt;span style=&quot;color: rgb(32, 33, 34); font-family: sans-serif; font-size: 16px; text-align: start; text-wrap-mode: wrap; background-color: rgb(248, 249, 250);&quot;&gt;↓&lt;/span&gt;" style="edgeLabel;html=1;align=center;verticalAlign=middle;resizable=0;points=[];" vertex="1" connectable="0" parent="2saCW3hO8KF58HRFG3jg-76">
          <mxGeometry x="0.0128" y="-2" relative="1" as="geometry">
            <mxPoint x="34" y="48" as="offset" />
          </mxGeometry>
        </mxCell>
        <mxCell id="2saCW3hO8KF58HRFG3jg-13" value="&lt;font style=&quot;font-size: 15px;&quot;&gt;Viewer&lt;/font&gt;" style="swimlane;fontStyle=1;align=center;verticalAlign=top;childLayout=stackLayout;horizontal=1;startSize=42;horizontalStack=0;resizeParent=1;resizeParentMax=0;resizeLast=0;collapsible=1;marginBottom=0;whiteSpace=wrap;html=1;fillColor=#dae8fc;strokeColor=#6c8ebf;" vertex="1" parent="1">
          <mxGeometry x="79" y="200" width="150" height="50" as="geometry" />
        </mxCell>
        <mxCell id="2saCW3hO8KF58HRFG3jg-14" value="" style="line;strokeWidth=1;fillColor=none;align=left;verticalAlign=middle;spacingTop=-1;spacingLeft=3;spacingRight=3;rotatable=0;labelPosition=right;points=[];portConstraint=eastwest;strokeColor=inherit;" vertex="1" parent="2saCW3hO8KF58HRFG3jg-13">
          <mxGeometry y="42" width="150" height="8" as="geometry" />
        </mxCell>
        <mxCell id="2saCW3hO8KF58HRFG3jg-79" style="edgeStyle=orthogonalEdgeStyle;rounded=0;orthogonalLoop=1;jettySize=auto;html=1;entryX=0;entryY=0.5;entryDx=0;entryDy=0;endArrow=none;endFill=1;startFill=0;" edge="1" parent="1" source="2saCW3hO8KF58HRFG3jg-15" target="2saCW3hO8KF58HRFG3jg-46">
          <mxGeometry relative="1" as="geometry">
            <Array as="points" />
          </mxGeometry>
        </mxCell>
        <mxCell id="2saCW3hO8KF58HRFG3jg-80" value="manages&amp;nbsp;&lt;span style=&quot;color: rgb(32, 33, 34); font-family: sans-serif; font-size: 16px; text-align: start; text-wrap-mode: wrap; background-color: rgb(248, 249, 250);&quot;&gt;↘&lt;/span&gt;" style="edgeLabel;html=1;align=center;verticalAlign=middle;resizable=0;points=[];" vertex="1" connectable="0" parent="2saCW3hO8KF58HRFG3jg-79">
          <mxGeometry x="-0.2051" y="-1" relative="1" as="geometry">
            <mxPoint x="-3" y="5" as="offset" />
          </mxGeometry>
        </mxCell>
        <mxCell id="2saCW3hO8KF58HRFG3jg-82" style="edgeStyle=orthogonalEdgeStyle;rounded=0;orthogonalLoop=1;jettySize=auto;html=1;endArrow=block;endFill=0;endSize=8;entryX=0.5;entryY=1;entryDx=0;entryDy=0;" edge="1" parent="1" source="2saCW3hO8KF58HRFG3jg-15" target="2saCW3hO8KF58HRFG3jg-13">
          <mxGeometry relative="1" as="geometry">
            <mxPoint x="154" y="240" as="targetPoint" />
            <Array as="points" />
          </mxGeometry>
        </mxCell>
        <mxCell id="2saCW3hO8KF58HRFG3jg-15" value="&lt;font style=&quot;font-size: 15px;&quot;&gt;Operator&lt;/font&gt;" style="swimlane;fontStyle=1;align=center;verticalAlign=top;childLayout=stackLayout;horizontal=1;startSize=42;horizontalStack=0;resizeParent=1;resizeParentMax=0;resizeLast=0;collapsible=1;marginBottom=0;whiteSpace=wrap;html=1;fillColor=#dae8fc;strokeColor=#6c8ebf;" vertex="1" parent="1">
          <mxGeometry x="79" y="280" width="150" height="50" as="geometry" />
        </mxCell>
        <mxCell id="2saCW3hO8KF58HRFG3jg-16" value="" style="line;strokeWidth=1;fillColor=none;align=left;verticalAlign=middle;spacingTop=-1;spacingLeft=3;spacingRight=3;rotatable=0;labelPosition=right;points=[];portConstraint=eastwest;strokeColor=inherit;" vertex="1" parent="2saCW3hO8KF58HRFG3jg-15">
          <mxGeometry y="42" width="150" height="8" as="geometry" />
        </mxCell>
        <mxCell id="2saCW3hO8KF58HRFG3jg-19" style="edgeStyle=orthogonalEdgeStyle;rounded=0;orthogonalLoop=1;jettySize=auto;html=1;entryX=0.5;entryY=1;entryDx=0;entryDy=0;endArrow=block;endFill=0;endSize=8;" edge="1" parent="1" source="2saCW3hO8KF58HRFG3jg-17" target="2saCW3hO8KF58HRFG3jg-15">
          <mxGeometry relative="1" as="geometry" />
        </mxCell>
        <mxCell id="2saCW3hO8KF58HRFG3jg-17" value="&lt;font style=&quot;font-size: 15px;&quot;&gt;Admin&lt;/font&gt;" style="swimlane;fontStyle=1;align=center;verticalAlign=top;childLayout=stackLayout;horizontal=1;startSize=42;horizontalStack=0;resizeParent=1;resizeParentMax=0;resizeLast=0;collapsible=1;marginBottom=0;whiteSpace=wrap;html=1;fillColor=#dae8fc;strokeColor=#6c8ebf;" vertex="1" parent="1">
          <mxGeometry x="79" y="360" width="150" height="50" as="geometry" />
        </mxCell>
        <mxCell id="2saCW3hO8KF58HRFG3jg-18" value="" style="line;strokeWidth=1;fillColor=none;align=left;verticalAlign=middle;spacingTop=-1;spacingLeft=3;spacingRight=3;rotatable=0;labelPosition=right;points=[];portConstraint=eastwest;strokeColor=inherit;" vertex="1" parent="2saCW3hO8KF58HRFG3jg-17">
          <mxGeometry y="42" width="150" height="8" as="geometry" />
        </mxCell>
        <mxCell id="2saCW3hO8KF58HRFG3jg-28" value="&lt;font style=&quot;font-size: 15px;&quot;&gt;Classname&lt;/font&gt;" style="swimlane;fontStyle=1;align=center;verticalAlign=top;childLayout=stackLayout;horizontal=1;startSize=40;horizontalStack=0;resizeParent=1;resizeParentMax=0;resizeLast=0;collapsible=1;marginBottom=0;whiteSpace=wrap;html=1;" vertex="1" parent="1">
          <mxGeometry x="650" y="71" width="150" height="68" as="geometry" />
        </mxCell>
        <mxCell id="2saCW3hO8KF58HRFG3jg-29" value="+ field: type" style="text;strokeColor=none;fillColor=none;align=left;verticalAlign=middle;spacingLeft=4;spacingRight=4;overflow=hidden;rotatable=0;points=[[0,0.5],[1,0.5]];portConstraint=eastwest;whiteSpace=wrap;html=1;" vertex="1" parent="2saCW3hO8KF58HRFG3jg-28">
          <mxGeometry y="40" width="150" height="20" as="geometry" />
        </mxCell>
        <mxCell id="2saCW3hO8KF58HRFG3jg-30" value="" style="line;strokeWidth=1;fillColor=none;align=left;verticalAlign=middle;spacingTop=-1;spacingLeft=3;spacingRight=3;rotatable=0;labelPosition=right;points=[];portConstraint=eastwest;strokeColor=inherit;" vertex="1" parent="2saCW3hO8KF58HRFG3jg-28">
          <mxGeometry y="60" width="150" height="8" as="geometry" />
        </mxCell>
        <mxCell id="2saCW3hO8KF58HRFG3jg-32" value="&lt;font style=&quot;font-size: 15px;&quot;&gt;&lt;i&gt;Utente&lt;/i&gt;&lt;/font&gt;" style="swimlane;fontStyle=1;align=center;verticalAlign=top;childLayout=stackLayout;horizontal=1;startSize=40;horizontalStack=0;resizeParent=1;resizeParentMax=0;resizeLast=0;collapsible=1;marginBottom=0;whiteSpace=wrap;html=1;fillColor=light-dark(#86b8fe, #1d293b);strokeColor=#6c8ebf;" vertex="1" parent="1">
          <mxGeometry x="44" y="51" width="220" height="108" as="geometry" />
        </mxCell>
        <mxCell id="2saCW3hO8KF58HRFG3jg-40" value="username" style="text;strokeColor=none;fillColor=none;align=left;verticalAlign=middle;spacingLeft=4;spacingRight=4;overflow=hidden;rotatable=0;points=[[0,0.5],[1,0.5]];portConstraint=eastwest;whiteSpace=wrap;html=1;" vertex="1" parent="2saCW3hO8KF58HRFG3jg-32">
          <mxGeometry y="40" width="220" height="20" as="geometry" />
        </mxCell>
        <mxCell id="2saCW3hO8KF58HRFG3jg-33" value="password" style="text;strokeColor=none;fillColor=none;align=left;verticalAlign=middle;spacingLeft=4;spacingRight=4;overflow=hidden;rotatable=0;points=[[0,0.5],[1,0.5]];portConstraint=eastwest;whiteSpace=wrap;html=1;" vertex="1" parent="2saCW3hO8KF58HRFG3jg-32">
          <mxGeometry y="60" width="220" height="20" as="geometry" />
        </mxCell>
        <mxCell id="2saCW3hO8KF58HRFG3jg-39" value="&lt;font style=&quot;font-size: 12px;&quot;&gt;type : enum {admin, operator, viewer}&lt;/font&gt;" style="text;strokeColor=none;fillColor=none;align=left;verticalAlign=middle;spacingLeft=4;spacingRight=4;overflow=hidden;rotatable=0;points=[[0,0.5],[1,0.5]];portConstraint=eastwest;whiteSpace=wrap;html=1;fontSize=13;" vertex="1" parent="2saCW3hO8KF58HRFG3jg-32">
          <mxGeometry y="80" width="220" height="20" as="geometry" />
        </mxCell>
        <mxCell id="2saCW3hO8KF58HRFG3jg-34" value="" style="line;strokeWidth=1;fillColor=none;align=left;verticalAlign=middle;spacingTop=-1;spacingLeft=3;spacingRight=3;rotatable=0;labelPosition=right;points=[];portConstraint=eastwest;strokeColor=inherit;" vertex="1" parent="2saCW3hO8KF58HRFG3jg-32">
          <mxGeometry y="100" width="220" height="8" as="geometry" />
        </mxCell>
        <mxCell id="2saCW3hO8KF58HRFG3jg-81" style="edgeStyle=orthogonalEdgeStyle;rounded=0;orthogonalLoop=1;jettySize=auto;html=1;entryX=0.5;entryY=0;entryDx=0;entryDy=0;endArrow=none;endFill=1;endSize=14;startArrow=diamondThin;startFill=1;startSize=14;exitX=0.5;exitY=1;exitDx=0;exitDy=0;" edge="1" parent="1" source="2saCW3hO8KF58HRFG3jg-46" target="2saCW3hO8KF58HRFG3jg-49">
          <mxGeometry relative="1" as="geometry">
            <mxPoint x="312.8" y="537" as="sourcePoint" />
            <mxPoint x="312.8" y="627" as="targetPoint" />
            <Array as="points">
              <mxPoint x="395" y="454" />
              <mxPoint x="395" y="454" />
            </Array>
          </mxGeometry>
        </mxCell>
        <mxCell id="2saCW3hO8KF58HRFG3jg-46" value="&lt;font style=&quot;font-size: 15px;&quot;&gt;Network&lt;/font&gt;" style="swimlane;fontStyle=1;align=center;verticalAlign=top;childLayout=stackLayout;horizontal=1;startSize=40;horizontalStack=0;resizeParent=1;resizeParentMax=0;resizeLast=0;collapsible=1;marginBottom=0;whiteSpace=wrap;html=1;fillColor=#ffe6cc;strokeColor=#d79b00;" vertex="1" parent="1">
          <mxGeometry x="320" y="334" width="150" height="108" as="geometry" />
        </mxCell>
        <mxCell id="2saCW3hO8KF58HRFG3jg-47" value="code" style="text;strokeColor=none;fillColor=none;align=left;verticalAlign=middle;spacingLeft=4;spacingRight=4;overflow=hidden;rotatable=0;points=[[0,0.5],[1,0.5]];portConstraint=eastwest;whiteSpace=wrap;html=1;" vertex="1" parent="2saCW3hO8KF58HRFG3jg-46">
          <mxGeometry y="40" width="150" height="20" as="geometry" />
        </mxCell>
        <mxCell id="2saCW3hO8KF58HRFG3jg-55" value="name" style="text;strokeColor=none;fillColor=none;align=left;verticalAlign=middle;spacingLeft=4;spacingRight=4;overflow=hidden;rotatable=0;points=[[0,0.5],[1,0.5]];portConstraint=eastwest;whiteSpace=wrap;html=1;" vertex="1" parent="2saCW3hO8KF58HRFG3jg-46">
          <mxGeometry y="60" width="150" height="20" as="geometry" />
        </mxCell>
        <mxCell id="2saCW3hO8KF58HRFG3jg-56" value="description" style="text;strokeColor=none;fillColor=none;align=left;verticalAlign=middle;spacingLeft=4;spacingRight=4;overflow=hidden;rotatable=0;points=[[0,0.5],[1,0.5]];portConstraint=eastwest;whiteSpace=wrap;html=1;" vertex="1" parent="2saCW3hO8KF58HRFG3jg-46">
          <mxGeometry y="80" width="150" height="20" as="geometry" />
        </mxCell>
        <mxCell id="2saCW3hO8KF58HRFG3jg-48" value="" style="line;strokeWidth=1;fillColor=none;align=left;verticalAlign=middle;spacingTop=-1;spacingLeft=3;spacingRight=3;rotatable=0;labelPosition=right;points=[];portConstraint=eastwest;strokeColor=inherit;" vertex="1" parent="2saCW3hO8KF58HRFG3jg-46">
          <mxGeometry y="100" width="150" height="8" as="geometry" />
        </mxCell>
        <mxCell id="2saCW3hO8KF58HRFG3jg-49" value="&lt;font style=&quot;font-size: 15px;&quot;&gt;Gateway&lt;/font&gt;" style="swimlane;fontStyle=1;align=center;verticalAlign=top;childLayout=stackLayout;horizontal=1;startSize=40;horizontalStack=0;resizeParent=1;resizeParentMax=0;resizeLast=0;collapsible=1;marginBottom=0;whiteSpace=wrap;html=1;fillColor=#ffe6cc;strokeColor=#d79b00;" vertex="1" parent="1">
          <mxGeometry x="320" y="477" width="150" height="108" as="geometry" />
        </mxCell>
        <mxCell id="2saCW3hO8KF58HRFG3jg-50" value="macAddress" style="text;strokeColor=none;fillColor=none;align=left;verticalAlign=middle;spacingLeft=4;spacingRight=4;overflow=hidden;rotatable=0;points=[[0,0.5],[1,0.5]];portConstraint=eastwest;whiteSpace=wrap;html=1;" vertex="1" parent="2saCW3hO8KF58HRFG3jg-49">
          <mxGeometry y="40" width="150" height="20" as="geometry" />
        </mxCell>
        <mxCell id="2saCW3hO8KF58HRFG3jg-57" value="name" style="text;strokeColor=none;fillColor=none;align=left;verticalAlign=middle;spacingLeft=4;spacingRight=4;overflow=hidden;rotatable=0;points=[[0,0.5],[1,0.5]];portConstraint=eastwest;whiteSpace=wrap;html=1;" vertex="1" parent="2saCW3hO8KF58HRFG3jg-49">
          <mxGeometry y="60" width="150" height="20" as="geometry" />
        </mxCell>
        <mxCell id="2saCW3hO8KF58HRFG3jg-58" value="description" style="text;strokeColor=none;fillColor=none;align=left;verticalAlign=middle;spacingLeft=4;spacingRight=4;overflow=hidden;rotatable=0;points=[[0,0.5],[1,0.5]];portConstraint=eastwest;whiteSpace=wrap;html=1;" vertex="1" parent="2saCW3hO8KF58HRFG3jg-49">
          <mxGeometry y="80" width="150" height="20" as="geometry" />
        </mxCell>
        <mxCell id="2saCW3hO8KF58HRFG3jg-51" value="" style="line;strokeWidth=1;fillColor=none;align=left;verticalAlign=middle;spacingTop=-1;spacingLeft=3;spacingRight=3;rotatable=0;labelPosition=right;points=[];portConstraint=eastwest;strokeColor=inherit;" vertex="1" parent="2saCW3hO8KF58HRFG3jg-49">
          <mxGeometry y="100" width="150" height="8" as="geometry" />
        </mxCell>
        <mxCell id="2saCW3hO8KF58HRFG3jg-52" value="&lt;font style=&quot;font-size: 15px;&quot;&gt;Sensore&lt;/font&gt;" style="swimlane;fontStyle=1;align=center;verticalAlign=top;childLayout=stackLayout;horizontal=1;startSize=40;horizontalStack=0;resizeParent=1;resizeParentMax=0;resizeLast=0;collapsible=1;marginBottom=0;whiteSpace=wrap;html=1;fillColor=#ffe6cc;strokeColor=#d79b00;" vertex="1" parent="1">
          <mxGeometry x="530" y="477" width="150" height="148" as="geometry" />
        </mxCell>
        <mxCell id="2saCW3hO8KF58HRFG3jg-53" value="macAddress" style="text;strokeColor=none;fillColor=none;align=left;verticalAlign=middle;spacingLeft=4;spacingRight=4;overflow=hidden;rotatable=0;points=[[0,0.5],[1,0.5]];portConstraint=eastwest;whiteSpace=wrap;html=1;" vertex="1" parent="2saCW3hO8KF58HRFG3jg-52">
          <mxGeometry y="40" width="150" height="20" as="geometry" />
        </mxCell>
        <mxCell id="2saCW3hO8KF58HRFG3jg-59" value="name" style="text;strokeColor=none;fillColor=none;align=left;verticalAlign=middle;spacingLeft=4;spacingRight=4;overflow=hidden;rotatable=0;points=[[0,0.5],[1,0.5]];portConstraint=eastwest;whiteSpace=wrap;html=1;" vertex="1" parent="2saCW3hO8KF58HRFG3jg-52">
          <mxGeometry y="60" width="150" height="20" as="geometry" />
        </mxCell>
        <mxCell id="2saCW3hO8KF58HRFG3jg-60" value="description" style="text;strokeColor=none;fillColor=none;align=left;verticalAlign=middle;spacingLeft=4;spacingRight=4;overflow=hidden;rotatable=0;points=[[0,0.5],[1,0.5]];portConstraint=eastwest;whiteSpace=wrap;html=1;" vertex="1" parent="2saCW3hO8KF58HRFG3jg-52">
          <mxGeometry y="80" width="150" height="20" as="geometry" />
        </mxCell>
        <mxCell id="2saCW3hO8KF58HRFG3jg-61" value="variable" style="text;strokeColor=none;fillColor=none;align=left;verticalAlign=middle;spacingLeft=4;spacingRight=4;overflow=hidden;rotatable=0;points=[[0,0.5],[1,0.5]];portConstraint=eastwest;whiteSpace=wrap;html=1;" vertex="1" parent="2saCW3hO8KF58HRFG3jg-52">
          <mxGeometry y="100" width="150" height="20" as="geometry" />
        </mxCell>
        <mxCell id="2saCW3hO8KF58HRFG3jg-62" value="unit" style="text;strokeColor=none;fillColor=none;align=left;verticalAlign=middle;spacingLeft=4;spacingRight=4;overflow=hidden;rotatable=0;points=[[0,0.5],[1,0.5]];portConstraint=eastwest;whiteSpace=wrap;html=1;" vertex="1" parent="2saCW3hO8KF58HRFG3jg-52">
          <mxGeometry y="120" width="150" height="20" as="geometry" />
        </mxCell>
        <mxCell id="2saCW3hO8KF58HRFG3jg-54" value="" style="line;strokeWidth=1;fillColor=none;align=left;verticalAlign=middle;spacingTop=-1;spacingLeft=3;spacingRight=3;rotatable=0;labelPosition=right;points=[];portConstraint=eastwest;strokeColor=inherit;" vertex="1" parent="2saCW3hO8KF58HRFG3jg-52">
          <mxGeometry y="140" width="150" height="8" as="geometry" />
        </mxCell>
        <mxCell id="2saCW3hO8KF58HRFG3jg-107" style="edgeStyle=orthogonalEdgeStyle;rounded=0;orthogonalLoop=1;jettySize=auto;html=1;entryX=1.002;entryY=0.066;entryDx=0;entryDy=0;entryPerimeter=0;endArrow=none;startFill=0;" edge="1" parent="1" source="2saCW3hO8KF58HRFG3jg-63" target="2saCW3hO8KF58HRFG3jg-60">
          <mxGeometry relative="1" as="geometry">
            <mxPoint x="690" y="554" as="targetPoint" />
          </mxGeometry>
        </mxCell>
        <mxCell id="2saCW3hO8KF58HRFG3jg-108" value="&lt;span style=&quot;color: rgb(32, 33, 34); font-family: sans-serif; font-size: 16px; text-align: start; text-wrap-mode: wrap; background-color: rgb(248, 249, 250);&quot;&gt;←&lt;br&gt;&lt;span style=&quot;color: rgb(0, 0, 0); font-family: Helvetica; font-size: 11px; text-align: center; text-wrap-mode: nowrap; background-color: rgb(255, 255, 255);&quot;&gt;is related&amp;nbsp;&lt;/span&gt;&lt;/span&gt;" style="edgeLabel;html=1;align=center;verticalAlign=middle;resizable=0;points=[];" vertex="1" connectable="0" parent="2saCW3hO8KF58HRFG3jg-107">
          <mxGeometry x="-0.1508" y="1" relative="1" as="geometry">
            <mxPoint x="-5" y="-12" as="offset" />
          </mxGeometry>
        </mxCell>
        <mxCell id="2saCW3hO8KF58HRFG3jg-110" style="edgeStyle=orthogonalEdgeStyle;rounded=0;orthogonalLoop=1;jettySize=auto;html=1;entryX=0.5;entryY=1;entryDx=0;entryDy=0;endArrow=none;startFill=0;" edge="1" parent="1" source="2saCW3hO8KF58HRFG3jg-63" target="2saCW3hO8KF58HRFG3jg-66">
          <mxGeometry relative="1" as="geometry" />
        </mxCell>
        <mxCell id="2saCW3hO8KF58HRFG3jg-111" value="is computed from&amp;nbsp;&lt;span style=&quot;color: rgb(32, 33, 34); font-family: sans-serif; font-size: 16px; text-align: start; text-wrap-mode: wrap; background-color: rgb(248, 249, 250);&quot;&gt;↑&lt;/span&gt;" style="edgeLabel;html=1;align=center;verticalAlign=middle;resizable=0;points=[];" vertex="1" connectable="0" parent="2saCW3hO8KF58HRFG3jg-110">
          <mxGeometry x="0.1218" relative="1" as="geometry">
            <mxPoint y="5" as="offset" />
          </mxGeometry>
        </mxCell>
        <mxCell id="2saCW3hO8KF58HRFG3jg-63" value="&lt;font style=&quot;font-size: 15px;&quot;&gt;Statistiche&lt;/font&gt;" style="swimlane;fontStyle=1;align=center;verticalAlign=top;childLayout=stackLayout;horizontal=1;startSize=40;horizontalStack=0;resizeParent=1;resizeParentMax=0;resizeLast=0;collapsible=1;marginBottom=0;whiteSpace=wrap;html=1;fillColor=#fff2cc;strokeColor=#d6b656;" vertex="1" parent="1">
          <mxGeometry x="751" y="470" width="150" height="168" as="geometry" />
        </mxCell>
        <mxCell id="2saCW3hO8KF58HRFG3jg-64" value="startDate" style="text;strokeColor=none;fillColor=none;align=left;verticalAlign=middle;spacingLeft=4;spacingRight=4;overflow=hidden;rotatable=0;points=[[0,0.5],[1,0.5]];portConstraint=eastwest;whiteSpace=wrap;html=1;" vertex="1" parent="2saCW3hO8KF58HRFG3jg-63">
          <mxGeometry y="40" width="150" height="20" as="geometry" />
        </mxCell>
        <mxCell id="2saCW3hO8KF58HRFG3jg-69" value="endDate" style="text;strokeColor=none;fillColor=none;align=left;verticalAlign=middle;spacingLeft=4;spacingRight=4;overflow=hidden;rotatable=0;points=[[0,0.5],[1,0.5]];portConstraint=eastwest;whiteSpace=wrap;html=1;" vertex="1" parent="2saCW3hO8KF58HRFG3jg-63">
          <mxGeometry y="60" width="150" height="20" as="geometry" />
        </mxCell>
        <mxCell id="2saCW3hO8KF58HRFG3jg-70" value="mean" style="text;strokeColor=none;fillColor=none;align=left;verticalAlign=middle;spacingLeft=4;spacingRight=4;overflow=hidden;rotatable=0;points=[[0,0.5],[1,0.5]];portConstraint=eastwest;whiteSpace=wrap;html=1;" vertex="1" parent="2saCW3hO8KF58HRFG3jg-63">
          <mxGeometry y="80" width="150" height="20" as="geometry" />
        </mxCell>
        <mxCell id="2saCW3hO8KF58HRFG3jg-71" value="variance" style="text;strokeColor=none;fillColor=none;align=left;verticalAlign=middle;spacingLeft=4;spacingRight=4;overflow=hidden;rotatable=0;points=[[0,0.5],[1,0.5]];portConstraint=eastwest;whiteSpace=wrap;html=1;" vertex="1" parent="2saCW3hO8KF58HRFG3jg-63">
          <mxGeometry y="100" width="150" height="20" as="geometry" />
        </mxCell>
        <mxCell id="2saCW3hO8KF58HRFG3jg-72" value="upperThreshold" style="text;strokeColor=none;fillColor=none;align=left;verticalAlign=middle;spacingLeft=4;spacingRight=4;overflow=hidden;rotatable=0;points=[[0,0.5],[1,0.5]];portConstraint=eastwest;whiteSpace=wrap;html=1;" vertex="1" parent="2saCW3hO8KF58HRFG3jg-63">
          <mxGeometry y="120" width="150" height="20" as="geometry" />
        </mxCell>
        <mxCell id="2saCW3hO8KF58HRFG3jg-73" value="lowerThreshold" style="text;strokeColor=none;fillColor=none;align=left;verticalAlign=middle;spacingLeft=4;spacingRight=4;overflow=hidden;rotatable=0;points=[[0,0.5],[1,0.5]];portConstraint=eastwest;whiteSpace=wrap;html=1;" vertex="1" parent="2saCW3hO8KF58HRFG3jg-63">
          <mxGeometry y="140" width="150" height="20" as="geometry" />
        </mxCell>
        <mxCell id="2saCW3hO8KF58HRFG3jg-65" value="" style="line;strokeWidth=1;fillColor=none;align=left;verticalAlign=middle;spacingTop=-1;spacingLeft=3;spacingRight=3;rotatable=0;labelPosition=right;points=[];portConstraint=eastwest;strokeColor=inherit;" vertex="1" parent="2saCW3hO8KF58HRFG3jg-63">
          <mxGeometry y="160" width="150" height="8" as="geometry" />
        </mxCell>
        <mxCell id="2saCW3hO8KF58HRFG3jg-104" style="edgeStyle=orthogonalEdgeStyle;rounded=0;orthogonalLoop=1;jettySize=auto;html=1;entryX=0.5;entryY=0;entryDx=0;entryDy=0;endArrow=none;startFill=0;endFill=0;startArrow=open;" edge="1" parent="1" source="2saCW3hO8KF58HRFG3jg-66" target="2saCW3hO8KF58HRFG3jg-52">
          <mxGeometry relative="1" as="geometry" />
        </mxCell>
        <mxCell id="2saCW3hO8KF58HRFG3jg-105" value="produces&amp;nbsp;&lt;span style=&quot;color: rgb(32, 33, 34); font-family: sans-serif; font-size: 16px; text-align: start; text-wrap-mode: wrap; background-color: rgb(248, 249, 250);&quot;&gt;↗&lt;/span&gt;" style="edgeLabel;html=1;align=center;verticalAlign=middle;resizable=0;points=[];" vertex="1" connectable="0" parent="2saCW3hO8KF58HRFG3jg-104">
          <mxGeometry x="0.5207" y="-1" relative="1" as="geometry">
            <mxPoint as="offset" />
          </mxGeometry>
        </mxCell>
        <mxCell id="2saCW3hO8KF58HRFG3jg-66" value="&lt;font style=&quot;font-size: 15px;&quot;&gt;Misurazione&lt;/font&gt;" style="swimlane;fontStyle=1;align=center;verticalAlign=top;childLayout=stackLayout;horizontal=1;startSize=40;horizontalStack=0;resizeParent=1;resizeParentMax=0;resizeLast=0;collapsible=1;marginBottom=0;whiteSpace=wrap;html=1;fillColor=#fff2cc;strokeColor=#d6b656;" vertex="1" parent="1">
          <mxGeometry x="751" y="301" width="150" height="108" as="geometry" />
        </mxCell>
        <mxCell id="2saCW3hO8KF58HRFG3jg-67" value="timestamp" style="text;strokeColor=none;fillColor=none;align=left;verticalAlign=middle;spacingLeft=4;spacingRight=4;overflow=hidden;rotatable=0;points=[[0,0.5],[1,0.5]];portConstraint=eastwest;whiteSpace=wrap;html=1;" vertex="1" parent="2saCW3hO8KF58HRFG3jg-66">
          <mxGeometry y="40" width="150" height="20" as="geometry" />
        </mxCell>
        <mxCell id="2saCW3hO8KF58HRFG3jg-74" value="value" style="text;strokeColor=none;fillColor=none;align=left;verticalAlign=middle;spacingLeft=4;spacingRight=4;overflow=hidden;rotatable=0;points=[[0,0.5],[1,0.5]];portConstraint=eastwest;whiteSpace=wrap;html=1;" vertex="1" parent="2saCW3hO8KF58HRFG3jg-66">
          <mxGeometry y="60" width="150" height="20" as="geometry" />
        </mxCell>
        <mxCell id="2saCW3hO8KF58HRFG3jg-75" value="isOutlier" style="text;strokeColor=none;fillColor=none;align=left;verticalAlign=middle;spacingLeft=4;spacingRight=4;overflow=hidden;rotatable=0;points=[[0,0.5],[1,0.5]];portConstraint=eastwest;whiteSpace=wrap;html=1;" vertex="1" parent="2saCW3hO8KF58HRFG3jg-66">
          <mxGeometry y="80" width="150" height="20" as="geometry" />
        </mxCell>
        <mxCell id="2saCW3hO8KF58HRFG3jg-68" value="" style="line;strokeWidth=1;fillColor=none;align=left;verticalAlign=middle;spacingTop=-1;spacingLeft=3;spacingRight=3;rotatable=0;labelPosition=right;points=[];portConstraint=eastwest;strokeColor=inherit;" vertex="1" parent="2saCW3hO8KF58HRFG3jg-66">
          <mxGeometry y="100" width="150" height="8" as="geometry" />
        </mxCell>
        <mxCell id="2saCW3hO8KF58HRFG3jg-88" value="&lt;font style=&quot;font-size: 20px;&quot;&gt;*&lt;/font&gt;" style="text;html=1;align=center;verticalAlign=middle;resizable=0;points=[];autosize=1;strokeColor=none;fillColor=none;" vertex="1" parent="1">
          <mxGeometry x="506" y="523" width="30" height="40" as="geometry" />
        </mxCell>
        <mxCell id="2saCW3hO8KF58HRFG3jg-90" value="&lt;font style=&quot;font-size: 20px;&quot;&gt;*&lt;/font&gt;" style="text;html=1;align=center;verticalAlign=middle;resizable=0;points=[];autosize=1;strokeColor=none;fillColor=none;" vertex="1" parent="1">
          <mxGeometry x="389" y="455" width="30" height="40" as="geometry" />
        </mxCell>
        <mxCell id="2saCW3hO8KF58HRFG3jg-97" style="edgeStyle=orthogonalEdgeStyle;rounded=0;orthogonalLoop=1;jettySize=auto;html=1;entryX=0;entryY=0.5;entryDx=0;entryDy=0;endArrow=none;startFill=1;startArrow=diamondThin;startSize=14;" edge="1" parent="1" source="2saCW3hO8KF58HRFG3jg-57" target="2saCW3hO8KF58HRFG3jg-59">
          <mxGeometry relative="1" as="geometry" />
        </mxCell>
        <mxCell id="2saCW3hO8KF58HRFG3jg-112" value="&lt;font style=&quot;font-size: 20px;&quot;&gt;*&lt;/font&gt;" style="text;html=1;align=center;verticalAlign=middle;resizable=0;points=[];autosize=1;strokeColor=none;fillColor=none;" vertex="1" parent="1">
          <mxGeometry x="822" y="403" width="30" height="40" as="geometry" />
        </mxCell>
        <mxCell id="2saCW3hO8KF58HRFG3jg-113" value="&lt;font style=&quot;font-size: 13px;&quot;&gt;1&lt;/font&gt;" style="text;html=1;align=center;verticalAlign=middle;resizable=0;points=[];autosize=1;strokeColor=none;fillColor=none;" vertex="1" parent="1">
          <mxGeometry x="599" y="448" width="30" height="30" as="geometry" />
        </mxCell>
        <mxCell id="2saCW3hO8KF58HRFG3jg-114" value="&lt;font style=&quot;font-size: 14px;&quot;&gt;0..&lt;/font&gt;&lt;font style=&quot;font-size: 20px;&quot;&gt;*&lt;/font&gt;" style="text;html=1;align=center;verticalAlign=middle;resizable=0;points=[];autosize=1;strokeColor=none;fillColor=none;" vertex="1" parent="1">
          <mxGeometry x="707" y="351" width="50" height="40" as="geometry" />
        </mxCell>
        <mxCell id="2saCW3hO8KF58HRFG3jg-117" value="&lt;font style=&quot;font-size: 20px;&quot;&gt;*&lt;/font&gt;" style="text;html=1;align=center;verticalAlign=middle;resizable=0;points=[];autosize=1;strokeColor=none;fillColor=none;" vertex="1" parent="1">
          <mxGeometry x="802" y="447" width="30" height="40" as="geometry" />
        </mxCell>
        <mxCell id="2saCW3hO8KF58HRFG3jg-118" value="&lt;font style=&quot;font-size: 13px;&quot;&gt;1&lt;/font&gt;" style="text;html=1;align=center;verticalAlign=middle;resizable=0;points=[];autosize=1;strokeColor=none;fillColor=none;" vertex="1" parent="1">
          <mxGeometry x="672" y="555" width="30" height="30" as="geometry" />
        </mxCell>
        <mxCell id="2saCW3hO8KF58HRFG3jg-121" value="&lt;font style=&quot;font-size: 20px;&quot;&gt;*&lt;/font&gt;" style="text;html=1;align=center;verticalAlign=middle;resizable=0;points=[];autosize=1;strokeColor=none;fillColor=none;" vertex="1" parent="1">
          <mxGeometry x="729" y="528" width="30" height="40" as="geometry" />
        </mxCell>
      </root>
    </mxGraphModel>
  </diagram>
</mxfile>
